# xmcd CD database file
#
# Track frame offsets:
#	150
#	30202
#	51047
#	78252
#	94185
#	125582
#	181120
#	209607
#	235817
#	258240
#
# Disc length: 3747 seconds
#
# Revision: 1
# Processed by: cddbd v1.5.1PL0 Copyright (c) Steve Scherf et al.
# Submitted via: CDex 1.50Beta5
#
DISCID=780ea10a
DTITLE=Mike Rowland and Christa Michell - Dolphin Music for the Inner Child
DYEAR=2001
DGENRE=New Age
TTITLE0=Crystal Dreams
TTITLE1=Tranquility
TTITLE2=Dreamtime Dolphin
TTITLE3=Look Into The Light
TTITLE4=Protect The Children
TTITLE5=A Gentle Message Of Hope
TTITLE6=Kronos
TTITLE7=Spirit Guide
TTITLE8=Crown Chakra
TTITLE9=Dolphins
EXTD=YEAR: 2001
EXTT0=
EXTT1=
EXTT2=
EXTT3=
EXTT4=
EXTT5=
EXTT6=
EXTT7=
EXTT8=
EXTT9=
PLAYORDER=
